<?xml version="1.0" encoding="UTF-8" standalone="no"?><svg xmlns:svg="http://www.w3.org/2000/svg" xmlns="http://www.w3.org/2000/svg" xmlns:xlink="http://www.w3.org/1999/xlink" version="1.0" width="64px" height="64px" viewBox="0 0 128 128" xml:space="preserve"><g><path d="M64 1.5a62.8 62.8 0 0 0-12.4 1.23l-.38-1.45a64.56 64.56 0 0 1 25.57 0l-.4 1.45A62.78 62.78 0 0 0 64 1.5zm0 3a59.78 59.78 0 0 1 11.62 1.14L71.34 21.6a43.43 43.43 0 0 0-14.67.04l-4.3-16A59.78 59.78 0 0 1 64.02 4.5z" fill="#000000" fill-opacity="1"/><path d="M64 1.5a62.8 62.8 0 0 0-12.4 1.23l-.38-1.45a64.56 64.56 0 0 1 25.57 0l-.4 1.45A62.78 62.78 0 0 0 64 1.5zm0 3a59.78 59.78 0 0 1 11.62 1.14L71.34 21.6a43.43 43.43 0 0 0-14.67.04l-4.3-16A59.78 59.78 0 0 1 64.02 4.5z" fill="#f8f8f8" fill-opacity="0.03" transform="rotate(30 64 64)"/><path d="M64 1.5a62.8 62.8 0 0 0-12.4 1.23l-.38-1.45a64.56 64.56 0 0 1 25.57 0l-.4 1.45A62.78 62.78 0 0 0 64 1.5zm0 3a59.78 59.78 0 0 1 11.62 1.14L71.34 21.6a43.43 43.43 0 0 0-14.67.04l-4.3-16A59.78 59.78 0 0 1 64.02 4.5z" fill="#e8e8e8" fill-opacity="0.09" transform="rotate(60 64 64)"/><path d="M64 1.5a62.8 62.8 0 0 0-12.4 1.23l-.38-1.45a64.56 64.56 0 0 1 25.57 0l-.4 1.45A62.78 62.78 0 0 0 64 1.5zm0 3a59.78 59.78 0 0 1 11.62 1.14L71.34 21.6a43.43 43.43 0 0 0-14.67.04l-4.3-16A59.78 59.78 0 0 1 64.02 4.5z" fill="#d4d4d4" fill-opacity="0.17" transform="rotate(90 64 64)"/><path d="M64 1.5a62.8 62.8 0 0 0-12.4 1.23l-.38-1.45a64.56 64.56 0 0 1 25.57 0l-.4 1.45A62.78 62.78 0 0 0 64 1.5zm0 3a59.78 59.78 0 0 1 11.62 1.14L71.34 21.6a43.43 43.43 0 0 0-14.67.04l-4.3-16A59.78 59.78 0 0 1 64.02 4.5z" fill="#bebebe" fill-opacity="0.25" transform="rotate(120 64 64)"/><path d="M64 1.5a62.8 62.8 0 0 0-12.4 1.23l-.38-1.45a64.56 64.56 0 0 1 25.57 0l-.4 1.45A62.78 62.78 0 0 0 64 1.5zm0 3a59.78 59.78 0 0 1 11.62 1.14L71.34 21.6a43.43 43.43 0 0 0-14.67.04l-4.3-16A59.78 59.78 0 0 1 64.02 4.5z" fill="#a6a6a6" fill-opacity="0.35" transform="rotate(150 64 64)"/><path d="M64 1.5a62.8 62.8 0 0 0-12.4 1.23l-.38-1.45a64.56 64.56 0 0 1 25.57 0l-.4 1.45A62.78 62.78 0 0 0 64 1.5zm0 3a59.78 59.78 0 0 1 11.62 1.14L71.34 21.6a43.43 43.43 0 0 0-14.67.04l-4.3-16A59.78 59.78 0 0 1 64.02 4.5z" fill="#8e8e8e" fill-opacity="0.44" transform="rotate(180 64 64)"/><path d="M64 1.5a62.8 62.8 0 0 0-12.4 1.23l-.38-1.45a64.56 64.56 0 0 1 25.57 0l-.4 1.45A62.78 62.78 0 0 0 64 1.5zm0 3a59.78 59.78 0 0 1 11.62 1.14L71.34 21.6a43.43 43.43 0 0 0-14.67.04l-4.3-16A59.78 59.78 0 0 1 64.02 4.5z" fill="#737373" fill-opacity="0.55" transform="rotate(210 64 64)"/><path d="M64 1.5a62.8 62.8 0 0 0-12.4 1.23l-.38-1.45a64.56 64.56 0 0 1 25.57 0l-.4 1.45A62.78 62.78 0 0 0 64 1.5zm0 3a59.78 59.78 0 0 1 11.62 1.14L71.34 21.6a43.43 43.43 0 0 0-14.67.04l-4.3-16A59.78 59.78 0 0 1 64.02 4.5z" fill="#5a5a5a" fill-opacity="0.65" transform="rotate(240 64 64)"/><path d="M64 1.5a62.8 62.8 0 0 0-12.4 1.23l-.38-1.45a64.56 64.56 0 0 1 25.57 0l-.4 1.45A62.78 62.78 0 0 0 64 1.5zm0 3a59.78 59.78 0 0 1 11.62 1.14L71.34 21.6a43.43 43.43 0 0 0-14.67.04l-4.3-16A59.78 59.78 0 0 1 64.02 4.5z" fill="#414141" fill-opacity="0.75" transform="rotate(270 64 64)"/><path d="M64 1.5a62.8 62.8 0 0 0-12.4 1.23l-.38-1.45a64.56 64.56 0 0 1 25.57 0l-.4 1.45A62.78 62.78 0 0 0 64 1.5zm0 3a59.78 59.78 0 0 1 11.62 1.14L71.34 21.6a43.43 43.43 0 0 0-14.67.04l-4.3-16A59.78 59.78 0 0 1 64.02 4.5z" fill="#2a2a2a" fill-opacity="0.84" transform="rotate(300 64 64)"/><path d="M64 1.5a62.8 62.8 0 0 0-12.4 1.23l-.38-1.45a64.56 64.56 0 0 1 25.57 0l-.4 1.45A62.78 62.78 0 0 0 64 1.5zm0 3a59.78 59.78 0 0 1 11.62 1.14L71.34 21.6a43.43 43.43 0 0 0-14.67.04l-4.3-16A59.78 59.78 0 0 1 64.02 4.5z" fill="#151515" fill-opacity="0.92" transform="rotate(330 64 64)"/><animateTransform attributeName="transform" type="rotate" values="0 64 64;30 64 64;60 64 64;90 64 64;120 64 64;150 64 64;180 64 64;210 64 64;240 64 64;270 64 64;300 64 64;330 64 64" calcMode="discrete" dur="1080ms" repeatCount="indefinite"></animateTransform></g></svg>